<svg xmlns="http://www.w3.org/2000/svg" viewBox="0 0 32 32" width="32" height="32">
  <defs>
    <linearGradient id="lockGradient" x1="0%" y1="0%" x2="100%" y2="100%">
      <stop offset="0%" style="stop-color:#3b82f6;stop-opacity:1" />
      <stop offset="100%" style="stop-color:#1d4ed8;stop-opacity:1" />
    </linearGradient>
    <filter id="glow">
      <feGaussianBlur stdDeviation="1" result="coloredBlur"/>
      <feMerge> 
        <feMergeNode in="coloredBlur"/>
        <feMergeNode in="SourceGraphic"/>
      </feMerge>
    </filter>
  </defs>
  
  <!-- Background circle -->
  <circle cx="16" cy="16" r="15" fill="#1e293b" stroke="#3b82f6" stroke-width="0.5"/>
  
  <!-- Padlock body -->
  <rect x="8" y="14" width="16" height="12" rx="2" fill="url(#lockGradient)" filter="url(#glow)"/>
  
  <!-- Padlock shackle -->
  <path d="M 12 14 L 12 10 Q 12 6 16 6 Q 20 6 20 10 L 20 14" 
        stroke="#3b82f6" stroke-width="2" fill="none" filter="url(#glow)"/>
  
  <!-- Keyhole -->
  <circle cx="16" cy="18" r="2" fill="#1e293b"/>
  <rect x="15.5" y="18" width="1" height="3" fill="#1e293b"/>
  
  <!-- Digital circuit pattern dots -->
  <circle cx="6" cy="6" r="0.5" fill="#3b82f6" opacity="0.8"/>
  <circle cx="26" cy="6" r="0.5" fill="#3b82f6" opacity="0.8"/>
  <circle cx="6" cy="26" r="0.5" fill="#3b82f6" opacity="0.8"/>
  <circle cx="26" cy="26" r="0.5" fill="#3b82f6" opacity="0.8"/>
  
  <!-- Circuit lines -->
  <line x1="6" y1="6" x2="26" y2="6" stroke="#3b82f6" stroke-width="0.3" opacity="0.6"/>
  <line x1="6" y1="26" x2="26" y2="26" stroke="#3b82f6" stroke-width="0.3" opacity="0.6"/>
  <line x1="6" y1="6" x2="6" y2="26" stroke="#3b82f6" stroke-width="0.3" opacity="0.6"/>
  <line x1="26" y1="6" x2="26" y2="26" stroke="#3b82f6" stroke-width="0.3" opacity="0.6"/>
</svg> 